HIERARCHY
ROOT Hips
{
	OFFSET 0.000000 103.266502 0.000000
	CHANNELS 6 Xposition Yposition Zposition Xrotation Yrotation Zrotation 
	JOINT Spine
	{
		OFFSET -0.002400 12.777504 0.315300
		CHANNELS 3 Xrotation Yrotation Zrotation
		JOINT Spine1
		{
			OFFSET -0.002067 5.816869 0.032633
			CHANNELS 3 Xrotation Yrotation Zrotation
			JOINT Spine1_split
			{
				OFFSET -0.002067 5.816869 0.032633
				CHANNELS 3 Xrotation Yrotation Zrotation
				JOINT Spine2
				{
					OFFSET -0.002067 5.816869 0.032633
					CHANNELS 3 Xrotation Yrotation Zrotation
					JOINT Neck
					{
						OFFSET -0.003700 21.199493 -0.826900
						CHANNELS 3 Xrotation Yrotation Zrotation
						JOINT Head
						{
							OFFSET 0.000000 20.442200 4.834800
							CHANNELS 3 Xrotation Yrotation Zrotation
							JOINT HeadTop_End
							{
								OFFSET 0.000000 34.668396 4.968400
								CHANNELS 3 Xrotation Yrotation Zrotation
								End Site
								{
									OFFSET 0.000000 0.000000 0.000000
								}
							}
						}
					}
					JOINT LeftShoulder
					{
						OFFSET 3.288150 8.794197 -1.372250
						CHANNELS 3 Xrotation Yrotation Zrotation
						JOINT LeftShoulder_split
						{
							OFFSET 3.288150 8.794197 -1.372250
							CHANNELS 3 Xrotation Yrotation Zrotation
							JOINT LeftArm
							{
								OFFSET 11.953299 -2.279007 -0.146200
								CHANNELS 3 Xrotation Yrotation Zrotation
								JOINT LeftForeArm
								{
									OFFSET 18.448900 0.000000 0.000000
									CHANNELS 3 Xrotation Yrotation Zrotation
									JOINT LeftHand
									{
										OFFSET 29.527798 0.000000 0.000000
										CHANNELS 3 Xrotation Yrotation Zrotation
										JOINT LeftHandThumb1
										{
											OFFSET 10.739754 -2.369614 9.225399
											CHANNELS 3 Xrotation Yrotation Zrotation
											JOINT LeftHandThumb2
											{
												OFFSET 4.926170 -2.844131 2.844125
												CHANNELS 3 Xrotation Yrotation Zrotation
												JOINT LeftHandThumb3
												{
													OFFSET 4.614891 -2.664413 2.664409
													CHANNELS 3 Xrotation Yrotation Zrotation
													JOINT LeftHandThumb4
													{
														OFFSET 4.432465 -2.559082 2.559083
														CHANNELS 3 Xrotation Yrotation Zrotation
														End Site
														{
															OFFSET 0.000000 0.000000 0.000000
														}
													}
												}
											}
										}
										JOINT LeftHandIndex1
										{
											OFFSET 26.467674 0.187653 6.405298
											CHANNELS 3 Xrotation Yrotation Zrotation
											JOINT LeftHandIndex2
											{
												OFFSET 8.792900 0.000000 0.000000
												CHANNELS 3 Xrotation Yrotation Zrotation
												JOINT LeftHandIndex3
												{
													OFFSET 10.075203 0.000000 0.000000
													CHANNELS 3 Xrotation Yrotation Zrotation
													End Site
													{
														OFFSET 0.000000 0.000000 0.000000
													}
												}
											}
										}
										JOINT LeftHandMiddle1
										{
											OFFSET 25.764404 0.000000 0.000000
											CHANNELS 3 Xrotation Yrotation Zrotation
											JOINT LeftHandMiddle2
											{
												OFFSET 9.393974 0.000000 0.000000
												CHANNELS 3 Xrotation Yrotation Zrotation
												JOINT LeftHandMiddle3
												{
													OFFSET 10.771950 0.000000 0.000000
													CHANNELS 3 Xrotation Yrotation Zrotation
													End Site
													{
														OFFSET 0.000000 0.000000 0.000000
													}
												}
											}
										}
										JOINT LeftHandRing1
										{
											OFFSET 24.660927 0.144547 -6.225808
											CHANNELS 3 Xrotation Yrotation Zrotation
											JOINT LeftHandRing2
											{
												OFFSET 9.393799 0.000000 0.000000
												CHANNELS 3 Xrotation Yrotation Zrotation
												JOINT LeftHandRing3
												{
													OFFSET 9.928497 0.000000 0.000000
													CHANNELS 3 Xrotation Yrotation Zrotation
													End Site
													{
														OFFSET 0.000000 0.000000 0.000000
													}
												}
											}
										}
										JOINT LeftHandPinky1
										{
											OFFSET 23.655350 0.125290 -12.815412
											CHANNELS 3 Xrotation Yrotation Zrotation
											JOINT LeftHandPinky2
											{
												OFFSET 8.425102 0.000000 0.000000
												CHANNELS 3 Xrotation Yrotation Zrotation
												JOINT LeftHandPinky3
												{
													OFFSET 8.147003 0.000000 0.000000
													CHANNELS 3 Xrotation Yrotation Zrotation
													End Site
													{
														OFFSET 0.000000 0.000000 0.000000
													}
												}
											}
										}
									}
								}
							}
						}
					}
					JOINT RightShoulder
					{
						OFFSET -3.249400 8.794197 -1.372250
						CHANNELS 3 Xrotation Yrotation Zrotation
						JOINT RightShoulder_split
						{
							OFFSET -3.249400 8.794197 -1.372250
							CHANNELS 3 Xrotation Yrotation Zrotation
							JOINT RightArm
							{
								OFFSET -11.953299 -2.279007 -0.146200
								CHANNELS 3 Xrotation Yrotation Zrotation
								JOINT RightForeArm
								{
									OFFSET -18.448900 0.000000 0.000000
									CHANNELS 3 Xrotation Yrotation Zrotation
									JOINT RightHand
									{
										OFFSET -29.527802 0.000000 0.000000
										CHANNELS 3 Xrotation Yrotation Zrotation
										JOINT RightHandThumb1
										{
											OFFSET -10.739754 -2.369614 9.225399
											CHANNELS 3 Xrotation Yrotation Zrotation
											JOINT RightHandThumb2
											{
												OFFSET -4.926170 -2.844131 2.844125
												CHANNELS 3 Xrotation Yrotation Zrotation
												JOINT RightHandThumb3
												{
													OFFSET -4.614891 -2.664413 2.664409
													CHANNELS 3 Xrotation Yrotation Zrotation
													JOINT RightHandThumb4
													{
														OFFSET -4.432465 -2.559082 2.559083
														CHANNELS 3 Xrotation Yrotation Zrotation
														End Site
														{
															OFFSET 0.000000 0.000000 0.000000
														}
													}
												}
											}
										}
										JOINT RightHandIndex1
										{
											OFFSET -26.467674 0.187653 6.405298
											CHANNELS 3 Xrotation Yrotation Zrotation
											JOINT RightHandIndex2
											{
												OFFSET -8.792900 0.000000 0.000000
												CHANNELS 3 Xrotation Yrotation Zrotation
												JOINT RightHandIndex3
												{
													OFFSET -10.075203 0.000000 0.000000
													CHANNELS 3 Xrotation Yrotation Zrotation
													End Site
													{
														OFFSET 0.000000 0.000000 0.000000
													}
												}
											}
										}
										JOINT RightHandMiddle1
										{
											OFFSET -25.764404 0.000000 0.000000
											CHANNELS 3 Xrotation Yrotation Zrotation
											JOINT RightHandMiddle2
											{
												OFFSET -9.393974 0.000000 0.000000
												CHANNELS 3 Xrotation Yrotation Zrotation
												JOINT RightHandMiddle3
												{
													OFFSET -10.771950 0.000000 0.000000
													CHANNELS 3 Xrotation Yrotation Zrotation
													End Site
													{
														OFFSET 0.000000 0.000000 0.000000
													}
												}
											}
										}
										JOINT RightHandRing1
										{
											OFFSET -24.660927 0.144547 -6.225808
											CHANNELS 3 Xrotation Yrotation Zrotation
											JOINT RightHandRing2
											{
												OFFSET -9.393799 0.000000 0.000000
												CHANNELS 3 Xrotation Yrotation Zrotation
												JOINT RightHandRing3
												{
													OFFSET -9.928497 0.000000 0.000000
													CHANNELS 3 Xrotation Yrotation Zrotation
													End Site
													{
														OFFSET 0.000000 0.000000 0.000000
													}
												}
											}
										}
										JOINT RightHandPinky1
										{
											OFFSET -23.655350 0.125290 -12.815412
											CHANNELS 3 Xrotation Yrotation Zrotation
											JOINT RightHandPinky2
											{
												OFFSET -8.425102 0.000000 0.000000
												CHANNELS 3 Xrotation Yrotation Zrotation
												JOINT RightHandPinky3
												{
													OFFSET -8.147003 0.000000 0.000000
													CHANNELS 3 Xrotation Yrotation Zrotation
													End Site
													{
														OFFSET 0.000000 0.000000 0.000000
													}
												}
											}
										}
									}
								}
							}
						}
					}
				}
			}
		}
	}
	JOINT LeftUpLeg
	{
		OFFSET 11.394100 -6.187798 -0.413800
		CHANNELS 3 Xrotation Yrotation Zrotation
		JOINT LeftLeg
		{
			OFFSET 0.430247 -32.302673 3.732800
			CHANNELS 3 Xrotation Yrotation Zrotation
			JOINT LeftFoot
			{
				OFFSET -0.430247 -48.264931 -6.423300
				CHANNELS 3 Xrotation Yrotation Zrotation
				JOINT LeftToeBase
				{
					OFFSET 4.230900 -16.068199 23.438400
					CHANNELS 3 Xrotation Yrotation Zrotation
					JOINT LeftToe_End
					{
						OFFSET 4.510700 0.695400 19.974600
						CHANNELS 3 Xrotation Yrotation Zrotation
						End Site
						{
							OFFSET 0.000000 0.000000 0.000000
						}
					}
				}
			}
		}
	}
	JOINT RightUpLeg
	{
		OFFSET -11.333700 -6.187798 -0.413800
		CHANNELS 3 Xrotation Yrotation Zrotation
		JOINT RightLeg
		{
			OFFSET -0.430392 -32.302628 3.733000
			CHANNELS 3 Xrotation Yrotation Zrotation
			JOINT RightFoot
			{
				OFFSET 0.430392 -48.264973 -6.423500
				CHANNELS 3 Xrotation Yrotation Zrotation
				JOINT RightToeBase
				{
					OFFSET -4.230900 -16.068199 23.438400
					CHANNELS 3 Xrotation Yrotation Zrotation
					JOINT RightToe_End
					{
						OFFSET -4.510700 0.695400 19.974600
						CHANNELS 3 Xrotation Yrotation Zrotation
						End Site
						{
							OFFSET 0.000000 0.000000 0.000000
						}
					}
				}
			}
		}
	}
}
MOTION
Frames: 4
Frame Time: 0.016667
-0.047903 107.800308 -3.399467 -90.677025 -2.022190 1.739488 0.643805 -0.171828 -0.814374 0.768338 0.010520 -0.441587 0.000000 0.000000 0.000000 0.794643 0.003108 -0.423897 -4.679098 4.214176 -8.229255 4.592464 8.465934 -14.419380 -0.000000 -0.000001 0.000001 0.826367 -6.003513 -3.769292 0.000000 0.000000 0.000000 44.058149 -39.817069 -34.619572 0.000548 -83.309443 0.000524 -22.984423 -8.371321 7.116284 -1.945774 1.585335 13.204788 8.601845 21.114942 -0.258284 -4.250526 28.326751 20.005255 0.000004 -0.000001 0.000000 0.776296 5.158031 -28.512490 0.566015 2.514183 -25.370936 -0.000001 0.000000 -0.000001 0.776302 5.158033 -28.512492 0.566017 2.514184 -25.370936 -0.000000 0.000000 -0.000000 0.776297 5.158030 -28.512495 0.351469 2.000423 -19.928018 -0.000002 0.000001 -0.000001 0.776298 5.158032 -28.512490 0.064891 0.870545 -8.527012 -0.000001 -0.000002 -0.000000 0.511989 4.220235 2.974419 0.000000 0.000000 0.000000 -4.382360 2.494184 83.944166 -0.000006 129.402414 0.000004 -0.000545 -5.590406 64.849607 -1.120899 -3.665706 -6.555847 8.244825 -30.620776 -3.274796 -5.098230 -8.587475 -15.375854 -0.000001 -0.000001 -0.000002 4.540611 -8.344329 48.387399 6.575546 -4.244512 114.349094 0.000001 0.000000 0.000001 2.375481 -6.542195 44.640201 7.222612 -3.888185 123.454795 -0.000001 -0.000002 0.000001 2.745574 -6.923869 44.442279 7.225012 -3.886596 123.490298 -0.000000 0.000000 0.000000 -10.268021 -14.528494 47.436279 6.314158 -4.353048 110.862897 0.000001 -0.000000 -0.000001 -4.645155 20.171647 15.559314 3.796176 1.317208 1.568594 22.894717 29.764899 -25.660493 -2.210864 0.000002 -0.000007 -0.000000 -0.000001 0.000000 -6.172542 -19.849631 -17.302978 2.699595 -5.814218 -4.743134 33.638142 -29.900335 30.394144 -5.352620 -0.000025 -0.000004 0.000001 -0.000001 0.000000 
-0.043603 107.799767 -3.398682 -90.684681 -2.017785 1.737054 0.644182 -0.172073 -0.807320 0.775539 0.010199 -0.441929 0.000000 0.000000 0.000000 0.799318 0.002339 -0.423854 -4.701080 4.246300 -8.217699 5.074986 8.483810 -14.697198 0.000000 0.000000 -0.000001 0.821162 -6.021020 -3.761136 0.000000 0.000000 0.000000 44.049502 -39.812978 -34.639028 -0.000136 -83.307162 -0.000145 -22.981563 -8.387158 7.124575 -1.945773 1.585334 13.204790 8.601842 21.114942 -0.258281 -4.250528 28.326756 20.005255 0.000002 -0.000001 -0.000002 0.776298 5.158031 -28.512495 0.566015 2.514178 -25.370932 -0.000000 -0.000001 0.000002 0.776304 5.158031 -28.512495 0.566019 2.514184 -25.370932 0.000001 0.000000 0.000001 0.776301 5.158030 -28.512498 0.351473 2.000422 -19.928014 0.000000 0.000000 0.000001 0.776302 5.158031 -28.512495 0.064894 0.870545 -8.527013 0.000001 0.000000 -0.000000 0.506635 4.242360 2.977800 0.000000 0.000000 0.000000 -4.368386 2.476193 83.932841 0.000059 129.413507 -0.000057 -0.003263 -5.593547 64.841930 -1.120903 -3.665706 -6.555847 8.244826 -30.620783 -3.274798 -5.098229 -8.587473 -15.375854 -0.000002 -0.000001 -0.000001 4.540609 -8.344329 48.387399 6.575548 -4.244511 114.349087 -0.000003 -0.000000 -0.000001 2.375476 -6.542196 44.640204 7.222613 -3.888185 123.454809 0.000001 0.000002 0.000002 2.745573 -6.923867 44.442279 7.225005 -3.886593 123.490298 -0.000002 0.000001 0.000002 -10.268027 -14.528495 47.436282 6.314156 -4.353046 110.862897 -0.000002 0.000000 0.000001 -4.644087 20.173621 15.561164 3.804797 1.323075 1.568672 22.888707 29.762580 -25.655008 -2.262171 0.000011 -0.000000 -0.000000 0.000001 -0.000000 -6.161028 -19.850198 -17.303888 2.697575 -5.823779 -4.743221 33.638566 -29.899843 30.400837 -5.318760 0.000024 -0.000017 -0.000000 -0.000000 0.000000 
-0.038999 107.799026 -3.397179 -90.692386 -2.013325 1.734450 0.644412 -0.172268 -0.799339 0.783306 0.010056 -0.442169 0.000000 0.000000 0.000000 0.801158 0.001820 -0.423847 -4.737149 4.281858 -8.205621 5.647817 8.498318 -15.023532 0.000000 0.000001 -0.000002 0.816284 -6.034782 -3.754557 0.000000 0.000000 0.000000 44.044895 -39.812346 -34.650175 0.000484 -83.304136 0.000473 -22.980132 -8.404231 7.133036 -1.945772 1.585336 13.204793 8.601845 21.114942 -0.258287 -4.250524 28.326755 20.005257 0.000003 0.000001 0.000000 0.776299 5.158033 -28.512490 0.566015 2.514183 -25.370936 -0.000001 -0.000000 -0.000000 0.776301 5.158033 -28.512490 0.566016 2.514183 -25.370932 -0.000000 0.000002 0.000000 0.776300 5.158030 -28.512498 0.351473 2.000425 -19.928014 -0.000002 0.000003 -0.000000 0.776297 5.158035 -28.512495 0.064890 0.870543 -8.527014 -0.000001 0.000001 0.000000 0.501672 4.258664 2.981406 0.000000 0.000000 0.000000 -4.356465 2.463919 83.921824 -0.000000 129.421921 0.000009 -0.006372 -5.596625 64.834184 -1.120900 -3.665706 -6.555847 8.244826 -30.620780 -3.274792 -5.098231 -8.587475 -15.375855 0.000001 -0.000001 -0.000000 4.540609 -8.344330 48.387403 6.575545 -4.244509 114.349087 -0.000001 0.000000 0.000000 2.375477 -6.542198 44.640204 7.222613 -3.888187 123.454809 -0.000004 -0.000002 -0.000001 2.745574 -6.923869 44.442275 7.225006 -3.886595 123.490298 0.000000 0.000002 0.000004 -10.268029 -14.528495 47.436282 6.314154 -4.353044 110.862897 0.000000 0.000001 -0.000004 -4.643496 20.175021 15.563558 3.816199 1.327007 1.568789 22.882216 29.759312 -25.654037 -2.313745 0.000001 0.000014 -0.000000 0.000001 0.000000 -6.150521 -19.850487 -17.305097 2.697438 -5.835742 -4.743310 33.638463 -29.899116 30.408064 -5.285183 -0.000024 0.000007 0.000001 -0.000001 0.000000 
-0.034248 107.798233 -3.395302 -90.699298 -2.008860 1.731805 0.644590 -0.172395 -0.790735 0.790639 0.010042 -0.442317 0.000000 0.000000 0.000000 0.802097 0.001532 -0.423876 -4.785000 4.319760 -8.193455 6.265796 8.513244 -15.381157 -0.000000 0.000000 0.000001 0.814093 -6.042073 -3.750280 0.000000 0.000000 0.000000 44.046336 -39.816202 -34.649246 -0.000221 -83.299403 -0.000255 -22.982818 -8.421628 7.140842 -1.945772 1.585332 13.204792 8.601848 21.114942 -0.258287 -4.250526 28.326755 20.005252 0.000002 -0.000001 -0.000000 0.776299 5.158029 -28.512492 0.566015 2.514180 -25.370932 -0.000001 0.000001 0.000000 0.776304 5.158031 -28.512492 0.566015 2.514185 -25.370934 0.000001 0.000000 0.000001 0.776301 5.158028 -28.512495 0.351471 2.000424 -19.928016 -0.000001 0.000003 0.000000 0.776299 5.158031 -28.512492 0.064893 0.870545 -8.527016 0.000000 -0.000002 -0.000001 0.495735 4.266200 2.985392 0.000000 0.000000 0.000000 -4.348700 2.459908 83.910274 -0.000006 129.426498 0.000003 -0.009919 -5.599742 64.826623 -1.120904 -3.665707 -6.555848 8.244822 -30.620773 -3.274796 -5.098231 -8.587472 -15.375855 -0.000006 -0.000003 -0.000003 4.540605 -8.344331 48.387396 6.575544 -4.244513 114.349094 0.000002 -0.000000 -0.000001 2.375475 -6.542198 44.640201 7.222615 -3.888188 123.454809 0.000000 -0.000001 0.000000 2.745572 -6.923869 44.442275 7.225003 -3.886594 123.490298 0.000001 0.000001 0.000003 -10.268029 -14.528494 47.436279 6.314158 -4.353045 110.862897 0.000000 -0.000001 -0.000001 -4.645692 20.175738 15.563933 3.822605 1.285209 1.568987 22.888647 29.753281 -25.661173 -2.364395 0.000008 -0.000013 0.000001 0.000004 -0.000000 -6.144637 -19.850119 -17.305095 2.698128 -5.821717 -4.743502 33.648626 -29.898767 30.412476 -5.250984 0.000024 -0.000000 0.000000 0.000001 -0.000000 
